{"title":"Rats Night of Terror 1984 DVDRip Xvid [English Dubbed] LKRG","uid":6839240,"size":755424503,"categoryP":"video","categoryS":"movies","magnet":"?xt=urn:btih:51d543111a326368912193e0c91145a46ea505ab&amp;dn=Rats+Night+of+Terror+1984+DVDRip+Xvid+%5BEnglish+Dubbed%5D+LKRG&amp;tr=udp%3A%2F%2Ftracker.openbittorrent.com%3A80&amp;tr=udp%3A%2F%2Fopen.demonii.com%3A1337&amp;tr=udp%3A%2F%2Ftracker.coppersurfer.tk%3A6969&amp;tr=udp%3A%2F%2Fexodus.desync.com%3A6969","seeders":0,"leechers":1,"uploader":".BONE.","files":2,"time":1322115967,"description":"PLOT\n\nOne hundred years after a nuclear war has devastated the planet, society has been reborn into two\nfactions; the underground society and the scavangers above in the wastelands...\n &lt;a href=&quot;\nhttp://www.imdb.com/title/tt0086176/&quot; rel=&quot;nofollow&quot; target=&quot;_NEW&quot;&gt;\nhttp://www.imdb.com/title/tt0086176/&lt;/a&gt;\n\n\nEncoded By .......: BigPerm\nRuntime ..........: 1h 36mn\nFile Size ........: 720 MiB\nResolution .......: 656 x 336\nIMDb URL .........: http://www.imdb.com/title/tt0086176/\nGenre ............: Horror,Sci-Fi\nLanguage .........: English\nSubtitles ........: None\nVideo\nID : 0\nFormat : MPEG-4 Visual\nFormat profile : Advanced Simple@L5\nFormat settings, BVOP : Yes\nFormat settings, QPel : No\nFormat settings, GMC : No warppoints\nFormat settings, Matrix : Default (H.263)\nMuxing mode : Packed bitstream\nCodec ID : XVID\nCodec ID/Hint : XviD\nDuration : 1h 36mn\nBit rate : 584 Kbps\nWidth : 656 pixels\nHeight : 336 pixels\nDisplay aspect ratio : 1.952\nFrame rate : 23.976 fps\nColor space : YUV\nChroma subsampling : 4:2:0\nBit depth : 8 bits\nScan type : Progressive\nCompression mode : Lossy\nBits/(Pixel*Frame) : 0.110\nStream size : 404 MiB (56%)\nWriting library : XviD 64\nAudio\nID : 1\nFormat : AC-3\nFormat/Info : Audio Coding 3\nMode extension : CM (complete main)\nCodec ID : 2000\nDuration : 1h 36mn\nBit rate mode : Constant\nBit rate : 448 Kbps\nChannel(s) : 2 channels\nChannel positions : Front: L R\nSampling rate : 48.0 KHz\nBit depth : 16 bits\nCompression mode : Lossy\nStream size : 310 MiB (43%)\nAlignment : Split accross interleaves\nInterleave, duration : 42 ms (1.00 video frame)\nInterleave, preload duration : 500 ms\n\n","torrent":{"xt":"urn:btih:51d543111a326368912193e0c91145a46ea505ab","amp;dn":"Rats+Night+of+Terror+1984+DVDRip+Xvid+%5BEnglish+Dubbed%5D+LKRG","amp;tr":["udp%3A%2F%2Ftracker.openbittorrent.com%3A80","udp%3A%2F%2Fopen.demonii.com%3A1337","udp%3A%2F%2Ftracker.coppersurfer.tk%3A6969","udp%3A%2F%2Fexodus.desync.com%3A6969"],"infoHash":"51d543111a326368912193e0c91145a46ea505ab","infoHashBuffer":{"type":"Buffer","data":[81,213,67,17,26,50,99,104,145,33,147,224,201,17,69,164,110,165,5,171]},"announce":[],"urlList":[]}}